<svg width="40" height="40" viewBox="0 0 40 40" fill="none" xmlns="http://www.w3.org/2000/svg">
<rect width="40" height="40" rx="20" fill="#EBE5E0"/>
<path d="M13.7725 19.954C13.0543 18.7016 12.7075 17.6791 12.4984 16.6425C12.1891 15.1094 12.8968 13.6119 14.0693 12.6563C14.5648 12.2525 15.1328 12.3905 15.4258 12.9161L16.0873 14.1029C16.6116 15.0435 16.8738 15.5138 16.8218 16.0125C16.7698 16.5111 16.4162 16.9172 15.7091 17.7295L13.7725 19.954ZM13.7725 19.954C15.2262 22.4888 17.5075 24.7713 20.0452 26.2267M20.0452 26.2267C21.2975 26.9449 22.3201 27.2917 23.3567 27.5008C24.8897 27.8101 26.3873 27.1023 27.3428 25.9299C27.7467 25.4345 27.6087 24.8664 27.0831 24.5734L25.8963 23.9119C24.9556 23.3876 24.4853 23.1254 23.9867 23.1774C23.4881 23.2294 23.0819 23.5829 22.2697 24.2901L20.0452 26.2267Z" stroke="#1D2739" stroke-width="1.36364" stroke-linejoin="round"/>
<path d="M23.7881 13.1816V19.2422M26.8184 16.2119H20.7578" stroke="#1D2739" stroke-width="1.36364" stroke-linecap="round"/>
</svg>
