<svg width="20" height="20" viewBox="0 0 20 20" fill="none" xmlns="http://www.w3.org/2000/svg">
<path d="M16.68 1.66699C15.7522 1.66699 15 3.90557 15 6.66699H16.68C17.4897 6.66699 17.8945 6.66699 18.1451 6.38745C18.3958 6.1079 18.3521 5.73977 18.2648 5.0035C18.0345 3.05985 17.4119 1.66699 16.68 1.66699Z" stroke="#D0D5DD"/>
<path d="M15.0013 6.71221V15.5385C15.0013 16.7982 15.0013 17.4281 14.6163 17.676C13.9872 18.0812 13.0147 17.2315 12.5256 16.9231C12.1214 16.6682 11.9194 16.5407 11.6951 16.5334C11.4527 16.5254 11.2471 16.6477 10.8104 16.9231L9.21797 17.9273C8.78839 18.1982 8.57363 18.3337 8.33463 18.3337C8.09564 18.3337 7.88085 18.1982 7.4513 17.9273L5.85891 16.9231C5.45476 16.6682 5.25268 16.5407 5.02841 16.5334C4.78607 16.5254 4.58041 16.6477 4.14369 16.9231C3.65459 17.2315 2.68203 18.0812 2.05293 17.676C1.66797 17.4281 1.66797 16.7982 1.66797 15.5385V6.71221C1.66797 4.33387 1.66797 3.1447 2.4002 2.40585C3.13244 1.66699 4.31094 1.66699 6.66797 1.66699H16.668" stroke="#D0D5DD" stroke-width="1.5" stroke-linecap="round" stroke-linejoin="round"/>
<path d="M5 5H11.6667" stroke="#D0D5DD" stroke-width="1.5" stroke-linecap="round" stroke-linejoin="round"/>
<path d="M6.66667 8.33301H5" stroke="#D0D5DD" stroke-width="1.5" stroke-linecap="round" stroke-linejoin="round"/>
<path d="M10.418 9.06217C9.72764 9.06217 9.16797 9.55184 9.16797 10.1559C9.16797 10.76 9.72764 11.2497 10.418 11.2497C11.1083 11.2497 11.668 11.7393 11.668 12.3434C11.668 12.9475 11.1083 13.4372 10.418 13.4372M10.418 9.06217C10.9622 9.06217 11.4252 9.36651 11.5968 9.79134M10.418 9.06217V8.33301M10.418 13.4372C9.87372 13.4372 9.41072 13.1328 9.23914 12.708M10.418 13.4372V14.1663" stroke="#D0D5DD" stroke-width="1.5" stroke-linecap="round"/>
</svg>
