     <svg width="14" height="15" viewBox="0 0 14 15" fill="none"
                                                xmlns="http://www.w3.org/2000/svg">
                                                <path
                                                    d="M7.94366 12.9642C7.69072 13.201 7.35257 13.3334 7.00064 13.3334C6.64872 13.3334 6.31062 13.201 6.05762 12.9642C3.74093 10.7819 0.636277 8.34411 2.15032 4.80488C2.96895 2.89126 4.93403 1.66675 7.00064 1.66675C9.06727 1.66675 11.0323 2.89126 11.851 4.80488C13.3631 8.33967 10.2661 10.7894 7.94366 12.9642Z"
                                                    fill="#5B8469" stroke="#5B8469" />
                                                <path
                                                    d="M9.04036 6.91667C9.04036 8.04425 8.12628 8.95833 6.9987 8.95833C5.87111 8.95833 4.95703 8.04425 4.95703 6.91667C4.95703 5.78908 5.87111 4.875 6.9987 4.875C8.12628 4.875 9.04036 5.78908 9.04036 6.91667Z"
                                                    fill="white" stroke="#5B8469" />
                                            </svg>