<svg width="20" height="20" viewBox="0 0 20 20" fill="none" xmlns="http://www.w3.org/2000/svg">
<path d="M1.87847 13.0272C1.90677 12.7578 2.10194 12.5407 2.4923 12.1067L3.35152 11.1461C3.56155 10.8802 3.71059 10.417 3.71059 10.0002C3.71059 9.58366 3.5615 9.12033 3.3515 8.85449L2.4923 7.89392C2.10194 7.4598 1.90676 7.24274 1.87847 6.97339C1.85017 6.70404 1.99597 6.45102 2.28756 5.94498L2.69887 5.23114C3.00996 4.69128 3.16549 4.42135 3.43014 4.31372C3.69479 4.20608 3.99409 4.29102 4.59271 4.46088L5.60957 4.7473C5.99174 4.83543 6.3927 4.78543 6.74166 4.60614L7.02239 4.44417C7.32162 4.25251 7.55179 3.96993 7.67919 3.63777L7.95749 2.80661C8.14047 2.2566 8.23196 1.98159 8.44978 1.82429C8.66762 1.66699 8.95695 1.66699 9.53553 1.66699H10.4645C11.0432 1.66699 11.3325 1.66699 11.5503 1.82429C11.7681 1.98159 11.8596 2.2566 12.0426 2.80661L12.3209 3.63777C12.4483 3.96993 12.6784 4.25251 12.9777 4.44417L13.2584 4.60614C13.6074 4.78543 14.0084 4.83543 14.3905 4.7473L15.4074 4.46088C16.0059 4.29102 16.3053 4.20608 16.5699 4.31372C16.8346 4.42135 16.9901 4.69128 17.3012 5.23114L17.7125 5.94498C18.0041 6.45102 18.1499 6.70404 18.1216 6.97339C18.0933 7.24274 17.8981 7.4598 17.5078 7.89392L16.6485 8.85449C16.4386 9.12033 16.2894 9.58366 16.2894 10.0002C16.2894 10.417 16.4385 10.8802 16.6485 11.1461L17.5078 12.1067C17.8981 12.5407 18.0933 12.7578 18.1216 13.0272C18.1499 13.2966 18.0041 13.5496 17.7125 14.0556L17.3012 14.7694C16.9901 15.3092 16.8346 15.5792 16.5699 15.6868C16.3053 15.7945 16.0059 15.7096 15.4074 15.5397L14.3905 15.2532C14.0083 15.1651 13.6073 15.2152 13.2583 15.3945L12.9776 15.5565C12.6784 15.7482 12.4483 16.0307 12.3209 16.3628L12.0426 17.1941C11.8596 17.7441 11.7681 18.0191 11.5503 18.1763C11.3325 18.3337 11.0432 18.3337 10.4645 18.3337H9.53553C8.95695 18.3337 8.66762 18.3337 8.44978 18.1763C8.23196 18.0191 8.14047 17.7441 7.95749 17.1941" stroke="#D0D5DD" stroke-linecap="round"/>
<path d="M2.28242 15.6502C3.18242 14.7502 6.24243 11.7202 6.54243 11.3702C6.85957 11.0002 6.60243 10.5002 6.75543 8.95016C6.82945 8.20016 6.99079 7.63829 7.45243 7.22016C8.00243 6.70016 8.45239 6.70016 10.0024 6.66517C11.3524 6.70016 11.5124 6.55016 11.6524 6.90017C11.7524 7.15017 11.4524 7.30016 11.0924 7.70017C10.2924 8.50016 9.82239 8.90016 9.77739 9.15016C9.45239 10.2502 10.7324 10.9002 11.4324 10.2002C11.6971 9.93541 12.9224 8.70016 13.0424 8.60016C13.1324 8.52016 13.3479 8.52399 13.4524 8.65016C13.5424 8.73858 13.5524 8.75016 13.5424 9.15016C13.5331 9.52041 13.5373 10.052 13.5384 10.6002C13.5399 11.3104 13.5024 12.1002 13.2024 12.5002C12.6024 13.4002 11.6024 13.4502 10.7024 13.4902C9.85239 13.5402 9.15239 13.4502 8.93239 13.6102C8.75239 13.7002 7.80243 14.7002 6.65243 15.8502L4.60243 17.9002C2.90243 19.2502 1.03243 17.1502 2.28242 15.6502Z" stroke="#D0D5DD" stroke-linecap="round"/>
</svg>
