     <svg width="152" height="124" viewBox="0 0 152 124" fill="none"
                            xmlns="http://www.w3.org/2000/svg">
                            <circle cx="76" cy="58" r="52" fill="#EAEAEA" />
                            <circle cx="21" cy="25" r="5" fill="#BDBDBD" />
                            <circle cx="18" cy="109" r="7" fill="#BDBDBD" />
                            <circle cx="145" cy="41" r="7" fill="#BDBDBD" />
                            <circle cx="134" cy="14" r="4" fill="#BDBDBD" />
                            <g filter="url(#filter0_b_6053_208442)">
                                <rect x="52" y="34" width="48" height="48" rx="24" fill="#9D9D9D" />
                                <path
                                    d="M83 51C83.3437 51.0502 83.6777 51.113 84 51.1874C84.5912 51.324 84.8868 51.3923 85.241 51.6749C85.443 51.8361 85.6952 52.1552 85.8059 52.3897C86 52.801 86 53.1998 86 53.9974V64.8599C86 65.853 84.96 66.5351 84 66.3134C83.0803 66.1009 82.0659 65.9832 81 65.9832C79.0829 65.9832 77.3325 66.364 76 66.9916C74.6675 67.6192 72.9171 68 71 68C69.9341 68 68.9197 67.8823 68 67.6699C67.4088 67.5333 67.1132 67.465 66.759 67.1824C66.557 67.0212 66.3048 66.7021 66.1941 66.4676C66 66.0563 66 65.6575 66 64.8599V53.9974C66 53.0043 67.04 52.3222 68 52.544C68.3223 52.6184 68.6563 52.6812 69 52.7314"
                                    stroke="white" stroke-width="2" stroke-linecap="round" />
                                <path
                                    d="M78.5 59.5C78.5 60.8807 77.3807 62 76 62C74.6193 62 73.5 60.8807 73.5 59.5C73.5 58.1193 74.6193 57 76 57C77.3807 57 78.5 58.1193 78.5 59.5Z"
                                    stroke="white" stroke-width="1.5" />
                                <path d="M69.5 60.5V60.509" stroke="white" stroke-width="2" stroke-linecap="round"
                                    stroke-linejoin="round" />
                                <path d="M82.5 58.4922V58.5012" stroke="white" stroke-width="2" stroke-linecap="round"
                                    stroke-linejoin="round" />
                                <path d="M76 48V52M72 51V53M80 49V51" stroke="white" stroke-width="1.5"
                                    stroke-linecap="round" />
                            </g>
                            <defs>
                                <filter id="filter0_b_6053_208442" x="44" y="26" width="64" height="64"
                                    filterUnits="userSpaceOnUse" color-interpolation-filters="sRGB">
                                    <feFlood flood-opacity="0" result="BackgroundImageFix" />
                                    <feGaussianBlur in="BackgroundImageFix" stdDeviation="4" />
                                    <feComposite in2="SourceAlpha" operator="in"
                                        result="effect1_backgroundBlur_6053_208442" />
                                    <feBlend mode="normal" in="SourceGraphic" in2="effect1_backgroundBlur_6053_208442"
                                        result="shape" />
                                </filter>
                            </defs>
                        </svg>