<svg width="40" height="40" viewBox="0 0 40 40" fill="none" xmlns="http://www.w3.org/2000/svg">
<rect width="40" height="40" rx="20" fill="#5B8469"/>
<path d="M20.3803 13.1845C19.7022 13.1744 19.0202 13.1914 18.3571 13.2355C15.1882 13.4461 12.664 16.0062 12.4563 19.2201C12.4156 19.849 12.4156 20.5004 12.4563 21.1293C12.5319 22.2998 13.0496 23.3836 13.659 24.2988C14.0129 24.9394 13.7794 25.7391 13.4108 26.4376C13.145 26.9412 13.0122 27.193 13.1188 27.3749C13.2255 27.5568 13.4639 27.5626 13.9405 27.5742C14.8831 27.5972 15.5187 27.3299 16.0233 26.9579C16.3094 26.7469 16.4525 26.6413 16.5511 26.6292C16.6497 26.6171 16.8438 26.697 17.2318 26.8569C17.5806 27.0005 17.9856 27.0891 18.3571 27.1138C19.4361 27.1856 20.5648 27.1857 21.6459 27.1138C24.8149 26.9032 27.3391 24.3432 27.5468 21.1293C27.5789 20.6332 27.5856 20.1231 27.5671 19.621" stroke="white" stroke-width="1.36364" stroke-linecap="round" stroke-linejoin="round"/>
<path d="M22.2734 15.0734H27.5765M24.925 12.4219V17.7249" stroke="white" stroke-width="1.36364" stroke-linecap="round" stroke-linejoin="round"/>
<path d="M19.9996 20.377H20.0063M23.0265 20.377H23.0333M16.9727 20.377H16.9795" stroke="white" stroke-width="1.81818" stroke-linecap="round" stroke-linejoin="round"/>
</svg>
